<svg width="452" height="68" viewBox="0 0 452 68" fill="none" xmlns="http://www.w3.org/2000/svg">
<path d="M53.61 50.5L25.25 50.5C18.5533 50.5 12.1309 47.8397 7.39556 43.1044C2.66025 38.3692 0 31.9467 0 25.25C0 18.5533 2.66025 12.1308 7.39556 7.3956C12.1309 2.6603 18.5533 0 25.25 0L53.61 0C60.3067 0 66.7292 2.6603 71.4645 7.3956C76.1998 12.1308 78.86 18.5533 78.86 25.25C78.86 31.9467 76.1998 38.3692 71.4645 43.1044C66.7292 47.8397 60.3067 50.5 53.61 50.5ZM53.72 6.65C50.0413 6.65 46.4452 7.7409 43.3864 9.7847C40.3277 11.8285 37.9436 14.7334 36.5359 18.1321C35.1281 21.5308 34.7597 25.2706 35.4774 28.8787C36.1951 32.4867 37.9666 35.8009 40.5678 38.4022C43.1691 41.0034 46.4833 42.7749 50.0913 43.4926C53.6994 44.2103 57.4392 43.8419 60.8379 42.4342C64.2366 41.0264 67.1416 38.6424 69.1853 35.5836C71.2291 32.5248 72.32 28.9287 72.32 25.25C72.3213 22.8037 71.8398 20.3811 70.903 18.1213C69.9663 15.8614 68.5927 13.8087 66.861 12.0807C65.1293 10.3527 63.0736 8.9836 60.8118 8.0517C58.5499 7.1197 56.1263 6.6434 53.68 6.65H53.72Z" fill="#231F20"/>
<path d="M98.68 13.19C101.301 11.69 104.281 10.9328 107.3 11C110.521 10.9625 113.691 11.8026 116.47 13.43C119.222 15.0538 121.463 17.4165 122.94 20.25C124.565 23.4035 125.376 26.9132 125.3 30.46C125.365 34.0217 124.555 37.5449 122.94 40.72C121.487 43.6106 119.249 46.0338 116.484 47.7121C113.718 49.3904 110.535 50.2561 107.3 50.21C104.305 50.2704 101.35 49.517 98.75 48.03C96.4376 46.7228 94.4938 44.8513 93.1 42.59V67.59H86.8V11.63H93.1V18.63C94.4482 16.3567 96.3732 14.4801 98.68 13.19ZM117.13 22.98C116.061 20.9524 114.438 19.2704 112.45 18.13C110.475 17.0226 108.244 16.4504 105.98 16.47C103.733 16.4554 101.523 17.0424 99.58 18.17C97.5849 19.338 95.9541 21.0381 94.87 23.08C93.6996 25.4068 93.0899 27.9753 93.0899 30.58C93.0899 33.1846 93.6996 35.7531 94.87 38.08C95.9541 40.1219 97.5849 41.822 99.58 42.99C101.523 44.1176 103.733 44.7046 105.98 44.69C108.25 44.7098 110.483 44.1229 112.45 42.99C114.441 41.8265 116.063 40.1245 117.13 38.08C118.327 35.7361 118.922 33.1311 118.86 30.5C118.927 27.8875 118.332 25.3004 117.13 22.98Z" fill="#231F20"/>
<path d="M165.31 32.95H134.99C134.99 34.5487 135.313 36.1311 135.937 37.6028C136.561 39.0745 137.476 40.4056 138.625 41.5168C139.775 42.628 141.136 43.4966 142.628 44.071C144.12 44.6453 145.712 44.9136 147.31 44.86C149.726 44.9452 152.109 44.2778 154.13 42.95C155.927 41.7135 157.274 39.9275 157.97 37.86H164.75C163.793 41.4337 161.644 44.5736 158.66 46.76C155.359 49.1244 151.368 50.3304 147.31 50.19C143.915 50.2412 140.567 49.3887 137.61 47.72C134.775 46.1081 132.458 43.7215 130.93 40.84C129.267 37.6478 128.435 34.0884 128.51 30.49C128.429 26.9087 129.236 23.363 130.86 20.17C132.354 17.3031 134.651 14.9334 137.47 13.35C140.474 11.7176 143.851 10.894 147.27 10.96C150.605 10.8946 153.899 11.7086 156.82 13.32C159.526 14.826 161.749 17.0697 163.23 19.79C164.758 22.652 165.532 25.856 165.48 29.1C165.491 30.3854 165.434 31.6705 165.31 32.95ZM157.42 21.63C156.383 19.9272 154.881 18.5567 153.09 17.68C151.203 16.7646 149.128 16.3023 147.03 16.33C144.036 16.2505 141.125 17.3245 138.9 19.33C136.574 21.5433 135.198 24.5724 135.06 27.78H159.01C159.06 25.6223 158.509 23.4931 157.42 21.63Z" fill="#231F20"/>
<path d="M200.82 15.12C203.68 17.92 205.11 21.9466 205.11 27.2V49.56H198.88V28.1C198.88 24.32 197.94 21.42 196.05 19.42C195.041 18.4006 193.829 17.6063 192.491 17.0893C191.154 16.5722 189.722 16.3441 188.29 16.42C186.824 16.3494 185.36 16.5911 183.995 17.129C182.629 17.6669 181.394 18.4887 180.37 19.54C178.37 21.62 177.387 24.6433 177.42 28.61V49.61H171.12V11.63H177.42V17.03C178.671 15.0905 180.432 13.5335 182.51 12.53C184.721 11.4552 187.152 10.9108 189.61 10.94C191.663 10.852 193.713 11.1765 195.638 11.8945C197.564 12.6124 199.326 13.7092 200.82 15.12Z" fill="#231F20"/>
<path d="M240.01 1.31V6.44H219.01V22.72H236.01V27.85H219.01V49.58H212.71V1.31H240.01Z" fill="#231F20"/>
<path d="M279.33 32.95H249C249.003 34.5488 249.327 36.1307 249.953 37.6019C250.58 39.073 251.495 40.4034 252.645 41.5142C253.795 42.625 255.156 43.4935 256.648 44.0683C258.14 44.643 259.732 44.9122 261.33 44.86C263.746 44.9452 266.129 44.2778 268.15 42.95C269.947 41.7135 271.294 39.9275 271.99 37.86H278.77C277.813 41.4338 275.665 44.5736 272.68 46.76C269.378 49.123 265.388 50.3289 261.33 50.19C257.952 50.2463 254.619 49.4079 251.67 47.76C248.832 46.1512 246.514 43.7639 244.99 40.88C243.337 37.6858 242.518 34.1255 242.61 30.53C242.529 26.9487 243.336 23.403 244.96 20.21C246.452 17.3411 248.749 14.9706 251.57 13.39C254.574 11.7563 257.951 10.9327 261.37 11C264.705 10.9347 267.999 11.7486 270.92 13.36C273.624 14.8687 275.847 17.1117 277.33 19.83C278.85 22.6947 279.621 25.8974 279.57 29.14C279.556 30.4133 279.476 31.685 279.33 32.95ZM271.43 21.63C270.394 19.9402 268.894 18.5832 267.11 17.72C265.222 16.8057 263.147 16.3435 261.05 16.37C258.055 16.2895 255.145 17.3636 252.92 19.37C250.595 21.5848 249.216 24.6123 249.07 27.82H273.07C273.117 25.6434 272.549 23.4977 271.43 21.63Z" fill="#231F20"/>
<path d="M285.14 20.25C286.617 17.4165 288.858 15.0538 291.61 13.43C294.392 11.8013 297.566 10.9612 300.79 11C303.814 10.9272 306.802 11.6699 309.44 13.15C311.723 14.4154 313.615 16.2833 314.91 18.55V11.63H321.28V49.56H314.91V42.5C313.579 44.8013 311.656 46.7039 309.34 48.01C306.716 49.5009 303.737 50.2541 300.72 50.19C297.512 50.2318 294.357 49.3762 291.61 47.72C288.861 46.0224 286.633 43.6005 285.17 40.72C283.561 37.5501 282.754 34.0341 282.82 30.48C282.728 26.9298 283.525 23.413 285.14 20.25ZM313.14 23.05C312.073 21.0166 310.455 19.3252 308.47 18.17C306.497 17.0683 304.275 16.4899 302.015 16.4899C299.755 16.4899 297.533 17.0683 295.56 18.17C293.586 19.3154 291.977 20.9971 290.92 23.02C289.719 25.3267 289.124 27.9004 289.19 30.5C289.124 33.1316 289.719 35.7377 290.92 38.08C291.975 40.1198 293.583 41.8214 295.56 42.99C297.511 44.1265 299.733 44.7139 301.99 44.69C304.263 44.7101 306.5 44.1232 308.47 42.99C310.46 41.8284 312.08 40.1258 313.14 38.08C314.332 35.7596 314.927 33.1783 314.87 30.57C314.95 27.9609 314.368 25.3741 313.18 23.05H313.14Z" fill="#231F20"/>
<path d="M336.92 16.82V39.18C336.85 39.8773 336.918 40.5816 337.121 41.2525C337.323 41.9234 337.656 42.5478 338.1 43.09C338.88 43.85 340.25 44.23 342.19 44.23H346.82V49.56H341.15C337.64 49.56 335.01 48.76 333.25 47.14C331.49 45.52 330.62 42.87 330.62 39.14V16.82H325.71V11.63H330.61V2.07001H336.91V11.63H346.81V16.82H336.92Z" fill="#231F20"/>
<path d="M385.38 11.63V49.56H379.08V43.96C377.873 45.9104 376.14 47.4805 374.08 48.49C371.879 49.5867 369.449 50.1453 366.99 50.12C364.213 50.1739 361.465 49.5419 358.99 48.28C356.618 47.0506 354.674 45.1335 353.41 42.78C351.991 40.0232 351.303 36.9487 351.41 33.85V11.63H357.61V33.02C357.61 36.76 358.557 39.6333 360.45 41.64C361.456 42.6596 362.667 43.4542 364.003 43.9713C365.339 44.4884 366.77 44.7164 368.2 44.64C369.679 44.7214 371.158 44.4851 372.538 43.9469C373.918 43.4088 375.167 42.5812 376.2 41.52C378.13 39.45 379.1 36.42 379.1 32.45V11.63H385.38Z" fill="#231F20"/>
<path d="M404.39 12.72C406.685 11.4535 409.28 10.8316 411.9 10.92V17.42H410.24C403.167 17.42 399.633 21.25 399.64 28.91V49.54H393.34V11.63H399.61V17.79C400.67 15.6665 402.333 13.9028 404.39 12.72Z" fill="#231F20"/>
<path d="M450.87 32.95H420.55C420.55 34.5487 420.872 36.1311 421.497 37.6028C422.121 39.0745 423.036 40.4056 424.185 41.5168C425.335 42.628 426.696 43.4966 428.188 44.071C429.68 44.6453 431.272 44.9136 432.87 44.86C435.287 44.9478 437.671 44.2802 439.69 42.95C441.491 41.7178 442.84 39.9302 443.53 37.86H450.32C449.356 41.4304 447.209 44.568 444.23 46.76C440.925 49.1244 436.931 50.3303 432.87 50.19C429.495 50.2479 426.165 49.4093 423.22 47.76C420.382 46.1512 418.064 43.7638 416.54 40.88C414.869 37.6904 414.033 34.1298 414.11 30.53C414.032 26.9478 414.843 23.4021 416.47 20.21C417.958 17.3387 420.257 14.9673 423.08 13.39C426.081 11.7576 429.455 10.9339 432.87 11C436.208 10.9357 439.505 11.7495 442.43 13.36C445.134 14.8662 447.353 17.1101 448.83 19.83C450.358 22.692 451.132 25.896 451.08 29.14C451.076 30.4128 451.006 31.6845 450.87 32.95ZM442.98 21.63C441.932 19.9319 440.414 18.5738 438.61 17.72C436.741 16.8133 434.687 16.3513 432.61 16.37C429.612 16.2889 426.698 17.3629 424.47 19.37C422.144 21.5833 420.768 24.6124 420.63 27.82H444.63C444.669 25.643 444.098 23.4986 442.98 21.63Z" fill="#231F20"/>
</svg>
