<svg width="79" height="51" viewBox="0 0 79 51" fill="none" xmlns="http://www.w3.org/2000/svg">
<path d="M53.61 50.5L25.25 50.5C18.5533 50.5 12.1309 47.8397 7.39556 43.1044C2.66025 38.3692 0 31.9467 0 25.25C0 18.5533 2.66025 12.1308 7.39556 7.3956C12.1309 2.6603 18.5533 0 25.25 0L53.61 0C60.3067 0 66.7292 2.6603 71.4645 7.3956C76.1998 12.1308 78.86 18.5533 78.86 25.25C78.86 31.9467 76.1998 38.3692 71.4645 43.1044C66.7292 47.8397 60.3067 50.5 53.61 50.5ZM53.72 6.65C50.0413 6.65 46.4452 7.7409 43.3864 9.7847C40.3277 11.8285 37.9436 14.7334 36.5359 18.1321C35.1281 21.5308 34.7597 25.2706 35.4774 28.8787C36.1951 32.4867 37.9666 35.8009 40.5678 38.4022C43.1691 41.0034 46.4833 42.7749 50.0913 43.4926C53.6994 44.2103 57.4392 43.8419 60.8379 42.4342C64.2366 41.0264 67.1416 38.6424 69.1853 35.5836C71.2291 32.5248 72.32 28.9287 72.32 25.25C72.3213 22.8037 71.8398 20.3811 70.903 18.1213C69.9663 15.8614 68.5927 13.8087 66.861 12.0807C65.1293 10.3527 63.0736 8.9836 60.8118 8.0517C58.5499 7.1197 56.1263 6.6434 53.68 6.65H53.72Z" fill="#231F20"/>
</svg>
