<svg width="79" height="51" viewBox="0 0 79 51" fill="none" xmlns="http://www.w3.org/2000/svg">
<path d="M25.25 0H53.61C60.3067 0 66.7291 2.66026 71.4644 7.39555C76.1997 12.1308 78.86 18.5533 78.86 25.25C78.86 31.9467 76.1997 38.3692 71.4644 43.1044C66.7291 47.8397 60.3067 50.5 53.61 50.5H25.25C18.5533 50.5 12.1308 47.8397 7.3955 43.1044C2.6602 38.3692 0 31.9467 0 25.25C0 18.5533 2.6602 12.1308 7.3955 7.39555C12.1308 2.66026 18.5533 0 25.25 0ZM25.14 43.85C28.8187 43.85 32.4148 42.7591 35.4736 40.7153C38.5323 38.6715 40.9164 35.7666 42.3241 32.3679C43.7319 28.9692 44.1003 25.2294 43.3826 21.6213C42.6649 18.0133 40.8934 14.6991 38.2922 12.0978C35.6909 9.49655 32.3767 7.72508 28.7687 7.0074C25.1606 6.28971 21.4208 6.65805 18.0221 8.06584C14.6234 9.47363 11.7184 11.8576 9.6747 14.9164C7.6309 17.9752 6.54 21.5713 6.54 25.25C6.5387 27.6963 7.0202 30.1189 7.957 32.3787C8.8937 34.6386 10.2673 36.6913 11.999 38.4193C13.7307 40.1473 15.7864 41.5164 18.0482 42.4483C20.3101 43.3803 22.7337 43.8566 25.18 43.85H25.14Z" fill="#231F20"/>
</svg>
