<svg width="273" height="117" viewBox="0 0 273 117" fill="none" xmlns="http://www.w3.org/2000/svg">
<path d="M53.61 0H25.25C18.5533 0 12.1309 2.66026 7.39556 7.39555C2.66025 12.1308 0 18.5533 0 25.25C0 31.9467 2.66025 38.3692 7.39556 43.1044C12.1309 47.8397 18.5533 50.5 25.25 50.5H53.61C60.3067 50.5 66.7292 47.8397 71.4645 43.1044C76.1998 38.3692 78.86 31.9467 78.86 25.25C78.86 18.5533 76.1998 12.1308 71.4645 7.39555C66.7292 2.66026 60.3067 0 53.61 0ZM53.72 43.85C50.0413 43.85 46.4452 42.7591 43.3864 40.7153C40.3277 38.6715 37.9436 35.7666 36.5359 32.3679C35.1281 28.9692 34.7597 25.2294 35.4774 21.6213C36.1951 18.0133 37.9666 14.6991 40.5678 12.0978C43.1691 9.49655 46.4833 7.72508 50.0913 7.0074C53.6994 6.28971 57.4392 6.65805 60.8379 8.06584C64.2366 9.47363 67.1416 11.8576 69.1853 14.9164C71.2291 17.9752 72.32 21.5713 72.32 25.25C72.3213 27.6963 71.8398 30.1189 70.903 32.3787C69.9663 34.6386 68.5927 36.6913 66.861 38.4193C65.1293 40.1473 63.0736 41.5164 60.8118 42.4483C58.5499 43.3803 56.1263 43.8566 53.68 43.85H53.72Z" fill="white"/>
<path d="M98.68 13.19C101.301 11.69 104.281 10.9328 107.3 11C110.521 10.9625 113.691 11.8026 116.47 13.43C119.222 15.0538 121.463 17.4165 122.94 20.25C124.565 23.4035 125.376 26.9132 125.3 30.46C125.365 34.0217 124.555 37.5449 122.94 40.72C121.487 43.6106 119.249 46.0338 116.484 47.7121C113.718 49.3904 110.535 50.2561 107.3 50.21C104.305 50.2704 101.35 49.517 98.75 48.03C96.4376 46.7228 94.4938 44.8513 93.1 42.59V67.59H86.8V11.63H93.1V18.63C94.4482 16.3567 96.3732 14.4801 98.68 13.19ZM117.13 22.98C116.061 20.9524 114.438 19.2704 112.45 18.13C110.475 17.0226 108.244 16.4504 105.98 16.47C103.733 16.4554 101.523 17.0424 99.58 18.17C97.5849 19.338 95.9541 21.0381 94.87 23.08C93.6996 25.4068 93.0899 27.9753 93.0899 30.58C93.0899 33.1846 93.6996 35.7531 94.87 38.08C95.9541 40.1219 97.5849 41.822 99.58 42.99C101.523 44.1176 103.733 44.7046 105.98 44.69C108.25 44.7098 110.483 44.1229 112.45 42.99C114.441 41.8265 116.063 40.1245 117.13 38.08C118.327 35.7361 118.922 33.1311 118.86 30.5C118.927 27.8875 118.332 25.3004 117.13 22.98Z" fill="white"/>
<path d="M165.31 32.95H134.99C134.99 34.5487 135.313 36.1311 135.937 37.6028C136.561 39.0745 137.476 40.4056 138.625 41.5168C139.775 42.628 141.136 43.4966 142.628 44.071C144.12 44.6453 145.712 44.9136 147.31 44.86C149.726 44.9452 152.109 44.2778 154.13 42.95C155.927 41.7135 157.274 39.9275 157.97 37.86H164.75C163.793 41.4337 161.644 44.5736 158.66 46.76C155.359 49.1244 151.368 50.3304 147.31 50.19C143.915 50.2412 140.567 49.3887 137.61 47.72C134.775 46.1081 132.458 43.7215 130.93 40.84C129.267 37.6478 128.435 34.0884 128.51 30.49C128.429 26.9087 129.236 23.363 130.86 20.17C132.354 17.3031 134.651 14.9334 137.47 13.35C140.474 11.7176 143.851 10.894 147.27 10.96C150.605 10.8946 153.899 11.7086 156.82 13.32C159.526 14.826 161.749 17.0697 163.23 19.79C164.758 22.652 165.532 25.856 165.48 29.1C165.491 30.3854 165.434 31.6705 165.31 32.95ZM157.42 21.63C156.383 19.9272 154.881 18.5567 153.09 17.68C151.203 16.7646 149.128 16.3023 147.03 16.33C144.036 16.2505 141.125 17.3245 138.9 19.33C136.574 21.5433 135.198 24.5724 135.06 27.78H159.01C159.06 25.6223 158.509 23.4931 157.42 21.63Z" fill="white"/>
<path d="M200.82 15.12C203.68 17.92 205.11 21.9466 205.11 27.2V49.56H198.88V28.1C198.88 24.32 197.94 21.42 196.05 19.42C195.041 18.4006 193.829 17.6063 192.491 17.0893C191.154 16.5722 189.722 16.3441 188.29 16.42C186.824 16.3494 185.36 16.5911 183.995 17.129C182.629 17.6669 181.394 18.4887 180.37 19.54C178.37 21.62 177.387 24.6433 177.42 28.61V49.61H171.12V11.63H177.42V17.03C178.671 15.0905 180.432 13.5335 182.51 12.53C184.721 11.4552 187.152 10.9108 189.61 10.94C191.663 10.852 193.713 11.1765 195.638 11.8945C197.564 12.6124 199.326 13.7092 200.82 15.12Z" fill="white"/>
<path d="M61.91 67.72V72.85H40.91V89.13H57.91V94.26H40.91V115.99H34.61V67.72H61.91Z" fill="white"/>
<path d="M101.23 99.36H70.9C70.903 100.959 71.227 102.541 71.853 104.012C72.48 105.483 73.395 106.813 74.545 107.924C75.695 109.035 77.056 109.904 78.548 110.478C80.04 111.053 81.632 111.322 83.23 111.27C85.646 111.355 88.029 110.688 90.05 109.36C91.847 108.124 93.194 106.338 93.89 104.27H100.67C99.713 107.844 97.565 110.984 94.58 113.17C91.278 115.533 87.288 116.739 83.23 116.6C79.852 116.656 76.519 115.818 73.57 114.17C70.732 112.561 68.414 110.174 66.89 107.29C65.237 104.096 64.418 100.536 64.51 96.94C64.429 93.3587 65.236 89.813 66.86 86.62C68.352 83.7511 70.649 81.3806 73.47 79.8C76.474 78.1663 79.851 77.3427 83.27 77.41C86.605 77.3447 89.899 78.1586 92.82 79.77C95.524 81.2787 97.747 83.5217 99.23 86.24C100.75 89.1047 101.521 92.3074 101.47 95.55C101.456 96.8233 101.376 98.095 101.23 99.36ZM93.33 88.04C92.294 86.3502 90.794 84.9932 89.01 84.13C87.122 83.2157 85.047 82.7535 82.95 82.78C79.955 82.6995 77.045 83.7736 74.82 85.78C72.495 87.9948 71.116 91.0223 70.97 94.23H94.97C95.017 92.0534 94.449 89.9077 93.33 88.04Z" fill="white"/>
<path d="M107.04 86.66C108.517 83.8265 110.758 81.4638 113.51 79.84C116.292 78.2113 119.466 77.3712 122.69 77.41C125.714 77.3372 128.702 78.0799 131.34 79.56C133.623 80.8254 135.515 82.6933 136.81 84.96V78.04H143.18V115.97H136.81V108.91C135.479 111.211 133.556 113.114 131.24 114.42C128.616 115.911 125.637 116.664 122.62 116.6C119.412 116.642 116.257 115.786 113.51 114.13C110.761 112.432 108.533 110.011 107.07 107.13C105.461 103.96 104.654 100.444 104.72 96.89C104.628 93.3398 105.425 89.823 107.04 86.66ZM135.04 89.46C133.973 87.4266 132.355 85.7352 130.37 84.58C128.397 83.4783 126.175 82.8999 123.915 82.8999C121.655 82.8999 119.433 83.4783 117.46 84.58C115.486 85.7254 113.877 87.4071 112.82 89.43C111.619 91.7367 111.024 94.3104 111.09 96.91C111.024 99.5416 111.619 102.148 112.82 104.49C113.875 106.53 115.483 108.231 117.46 109.4C119.411 110.537 121.633 111.124 123.89 111.1C126.163 111.12 128.4 110.533 130.37 109.4C132.36 108.238 133.98 106.536 135.04 104.49C136.232 102.17 136.827 99.5883 136.77 96.98C136.85 94.3709 136.268 91.7841 135.08 89.46H135.04Z" fill="white"/>
<path d="M158.82 83.23V105.59C158.75 106.287 158.818 106.992 159.021 107.663C159.223 108.333 159.556 108.958 160 109.5C160.78 110.26 162.15 110.64 164.09 110.64H168.72V115.97H163.05C159.54 115.97 156.91 115.17 155.15 113.55C153.39 111.93 152.52 109.28 152.52 105.55V83.23H147.61V78.04H152.51V68.48H158.81V78.04H168.71V83.23H158.82Z" fill="white"/>
<path d="M207.28 78.04V115.97H200.98V110.37C199.773 112.32 198.04 113.891 195.98 114.9C193.779 115.997 191.349 116.555 188.89 116.53C186.113 116.584 183.365 115.952 180.89 114.69C178.518 113.461 176.574 111.544 175.31 109.19C173.891 106.433 173.203 103.359 173.31 100.26V78.04H179.51V99.43C179.51 103.17 180.457 106.043 182.35 108.05C183.356 109.07 184.567 109.864 185.903 110.381C187.239 110.898 188.67 111.126 190.1 111.05C191.579 111.131 193.058 110.895 194.438 110.357C195.818 109.819 197.067 108.991 198.1 107.93C200.03 105.86 201 102.83 201 98.86V78.04H207.28Z" fill="white"/>
<path d="M226.29 79.13C228.585 77.8635 231.18 77.2416 233.8 77.33V83.83H232.14C225.067 83.83 221.533 87.66 221.54 95.32V115.95H215.24V78.04H221.51V84.2C222.57 82.0765 224.233 80.3128 226.29 79.13Z" fill="white"/>
<path d="M272.77 99.36H242.45C242.45 100.959 242.772 102.541 243.397 104.013C244.021 105.485 244.936 106.816 246.085 107.927C247.235 109.038 248.596 109.907 250.088 110.481C251.58 111.055 253.172 111.324 254.77 111.27C257.187 111.358 259.571 110.69 261.59 109.36C263.391 108.128 264.74 106.34 265.43 104.27H272.22C271.256 107.84 269.109 110.978 266.13 113.17C262.825 115.534 258.831 116.74 254.77 116.6C251.395 116.658 248.065 115.819 245.12 114.17C242.282 112.561 239.964 110.174 238.44 107.29C236.769 104.1 235.933 100.54 236.01 96.94C235.932 93.3578 236.743 89.8121 238.37 86.62C239.858 83.7487 242.157 81.3773 244.98 79.8C247.981 78.1676 251.355 77.3439 254.77 77.41C258.108 77.3457 261.405 78.1595 264.33 79.77C267.034 81.2762 269.253 83.5201 270.73 86.24C272.258 89.102 273.032 92.306 272.98 95.55C272.976 96.8228 272.906 98.0945 272.77 99.36ZM264.88 88.04C263.832 86.3419 262.314 84.9838 260.51 84.13C258.641 83.2233 256.587 82.7613 254.51 82.78C251.512 82.6989 248.598 83.7729 246.37 85.78C244.044 87.9933 242.668 91.0224 242.53 94.23H266.53C266.569 92.053 265.998 89.9086 264.88 88.04Z" fill="white"/>
</svg>
