<svg width="79" height="51" viewBox="0 0 79 51" fill="none" xmlns="http://www.w3.org/2000/svg">
<path d="M25.25 50.5L53.61 50.5C60.3067 50.5 66.7291 47.8397 71.4644 43.1044C76.1997 38.3692 78.86 31.9467 78.86 25.25C78.86 18.5533 76.1997 12.1308 71.4644 7.3956C66.7291 2.6603 60.3067 0 53.61 0L25.25 0C18.5533 0 12.1308 2.6603 7.3955 7.3956C2.6602 12.1308 0 18.5533 0 25.25C0 31.9467 2.6602 38.3692 7.3955 43.1044C12.1308 47.8397 18.5533 50.5 25.25 50.5ZM25.14 6.65C28.8187 6.65 32.4148 7.7409 35.4736 9.7847C38.5323 11.8285 40.9164 14.7334 42.3241 18.1321C43.7319 21.5308 44.1003 25.2706 43.3826 28.8787C42.6649 32.4867 40.8934 35.8009 38.2922 38.4022C35.6909 41.0034 32.3767 42.7749 28.7687 43.4926C25.1606 44.2103 21.4208 43.8419 18.0221 42.4342C14.6234 41.0264 11.7184 38.6424 9.6747 35.5836C7.6309 32.5248 6.54 28.9287 6.54 25.25C6.5387 22.8037 7.0202 20.3811 7.957 18.1213C8.8937 15.8614 10.2673 13.8087 11.999 12.0807C13.7307 10.3527 15.7864 8.9836 18.0482 8.0517C20.3101 7.1197 22.7337 6.6434 25.18 6.65H25.14Z" fill="white"/>
</svg>
