<svg width="79" height="51" viewBox="0 0 79 51" fill="none" xmlns="http://www.w3.org/2000/svg">
<path d="M53.61 0H25.25C18.5533 0 12.1309 2.66026 7.39556 7.39555C2.66025 12.1308 0 18.5533 0 25.25C0 31.9467 2.66025 38.3692 7.39556 43.1044C12.1309 47.8397 18.5533 50.5 25.25 50.5H53.61C60.3067 50.5 66.7292 47.8397 71.4645 43.1044C76.1998 38.3692 78.86 31.9467 78.86 25.25C78.86 18.5533 76.1998 12.1308 71.4645 7.39555C66.7292 2.66026 60.3067 0 53.61 0ZM53.72 43.85C50.0413 43.85 46.4452 42.7591 43.3864 40.7153C40.3277 38.6715 37.9436 35.7666 36.5359 32.3679C35.1281 28.9692 34.7597 25.2294 35.4774 21.6213C36.1951 18.0133 37.9666 14.6991 40.5678 12.0978C43.1691 9.49655 46.4833 7.72508 50.0913 7.0074C53.6994 6.28971 57.4392 6.65805 60.8379 8.06584C64.2366 9.47363 67.1416 11.8576 69.1853 14.9164C71.2291 17.9752 72.32 21.5713 72.32 25.25C72.3213 27.6963 71.8398 30.1189 70.903 32.3787C69.9663 34.6386 68.5927 36.6913 66.861 38.4193C65.1293 40.1473 63.0736 41.5164 60.8118 42.4483C58.5499 43.3803 56.1263 43.8566 53.68 43.85H53.72Z" fill="white"/>
</svg>
